<svg xmlns="http://www.w3.org/2000/svg" width="320px" height="47px" viewBox="0 0 320 47"><rect fill="none" width="320" height="47"></rect><path fill="#41586B" d="M24.758,0v8.752H14.048V0H0v13.589h8.864v10.594h-8.75V46.64h47.712V0H24.758z M43.794,42.794H4.149V29.017 h4.715v8.751h14.051V24.184h-8.867V13.589h10.709v8.75h14.048V8.752h-8.867V3.849h13.855V42.794z M4.95,8.647V4.935l-0.047-0.15 l0.129,0.052h3.741l0.131-0.052l-0.04,0.117v3.773l0.053,0.124L8.773,8.752H5.032L4.891,8.797L4.95,8.647z M14.055,32.827v-3.712 l-0.049-0.153l0.13,0.052h3.742l0.129-0.052l-0.037,0.121v3.77l0.05,0.124l-0.142-0.046h-3.742l-0.143,0.046L14.055,32.827z  M29.943,17.403v-3.715l-0.048-0.151l0.131,0.053h3.742l0.128-0.053l-0.038,0.121v3.77l0.05,0.12l-0.141-0.042h-3.742l-0.144,0.042 L29.943,17.403z"></path><path fill="#41586B" d="M258.596,19.116c0,1.705,0.553,2.316,1.94,2.316c1.65,0,2.959-0.752,4.447-2.436h1.228l-0.576,3.37h-12.179 v-0.934c1.13,0,1.647-0.513,1.647-1.605v-8.498c0-0.95-0.456-1.543-1.647-1.543V8.855h6.927v0.931c-1.374,0-1.787,0.533-1.787,1.725 V19.116z"></path><path fill="#41586B" d="M317.052,12.895c-0.862-2.042-2.68-3.349-4.644-3.349c-2.64,0-4.098,2.101-4.098,5.924 c0,3.942,1.712,6.262,4.619,6.262c0.783,0,1.382-0.174,2.004-0.535v-2.813c0-1.211-0.339-1.787-1.783-1.787v-0.931H320v0.931 c-1.169,0-1.549,0.596-1.549,1.686v3.33c-1.02,0.536-4.041,1.051-6.043,1.051c-4.937,0-7.958-2.557-7.958-6.78 c0-3.822,2.842-7.279,8.082-7.271c1.917,0.002,4.136,0.359,5.566,1.219l0.256,3.063H317.052z"></path><path fill="#41586B" d="M68.808,11.57c0-1.169-0.301-1.784-1.763-1.784V8.855h8.923c4.803,0,6.923,3.289,6.923,6.583 c0,3.307-2.262,6.933-7.882,6.933h-7.964V21.44c1.361,0,1.763-0.555,1.763-1.744V11.57z M72.328,19.219 c0,1.526,0.579,2.221,2.302,2.221c3.58,0,4.48-2.973,4.48-5.512c0-2.118-0.502-3.764-1.704-4.952 c-0.916-0.912-1.977-1.19-3.659-1.19h-1.42V19.219z"></path><path fill="#41586B" d="M133.369,22.371h-7.046V21.44c1.304,0,1.723-0.575,1.723-1.646v-8.243c0-1.208-0.397-1.765-1.723-1.765 V8.855h7.046v0.931c-1.519,0-1.8,0.715-1.8,1.802v8.187c0,1.072,0.4,1.665,1.8,1.665V22.371z"></path><path fill="#41586B" d="M141.832,11.57c0-1.169-0.302-1.784-1.763-1.784V8.855h8.926c4.801,0,6.923,3.289,6.923,6.583 c0,3.307-2.262,6.933-7.887,6.933h-7.963V21.44c1.361,0,1.763-0.555,1.763-1.744V11.57z M145.35,19.219 c0,1.526,0.584,2.221,2.304,2.221c3.579,0,4.479-2.973,4.479-5.512c0-2.118-0.497-3.764-1.702-4.952 c-0.915-0.912-1.977-1.19-3.657-1.19h-1.423V19.219z"></path><path fill="#41586B" d="M171.558,12.722c-0.301-1.846-1.743-3.17-3.466-3.17c-1.252,0-2.118,0.691-2.118,1.684 c0,2.891,7.901,2.5,7.901,7.472c0,2.616-2.339,3.959-5.7,3.959c-1.684,0-3.945-0.414-5.366-1.009v-3.347h1.603 c0.362,2.24,1.982,3.43,3.722,3.43c1.341,0,2.302-0.736,2.302-1.787c0-2.775-4.221-2.576-6.783-5.112 c-0.539-0.532-0.982-1.305-0.982-2.318c0-2.259,2.303-3.905,5.464-3.905c1.5,0,3.502,0.476,4.847,1.131v2.973H171.558z"></path><path fill="#41586B" d="M198.443,12.732c-0.301-1.849-1.732-3.176-3.458-3.176c-1.262,0-2.12,0.692-2.12,1.685 c0,2.891,7.899,2.499,7.899,7.47c0,2.615-2.337,3.965-5.699,3.965c-1.681,0-3.942-0.421-5.363-1.012v-3.348h1.603 c0.358,2.237,1.976,3.429,3.724,3.429c1.339,0,2.303-0.735,2.303-1.784c0-2.776-4.228-2.577-6.788-5.113 c-0.54-0.536-0.98-1.307-0.98-2.317c0-2.264,2.299-3.906,5.466-3.906c1.502,0,3.5,0.474,4.836,1.129v2.977H198.443z"></path><path fill="#41586B" d="M240.4,12.323h-0.041c-1.041,2.515-2.488,5.979-4.223,10.048h-1.256l-4.107-9.87h-0.037l-1.065,6.181 c-0.059,0.398-0.096,0.814-0.096,1.112c0,1.008,0.561,1.646,1.456,1.646h0.341v0.931h-4.595V21.44 c1.319-0.002,1.536-1.249,1.839-2.875l1.219-6.717c0.218-1.229,0-1.942-1.416-2.061V8.855h4.719c0.94,2.728,1.694,3.937,3.582,8.72 l3.744-8.72h4.915v0.931h-0.274c-1.401,0-1.584,0.754-1.322,2.319l1.24,7.45c0.198,1.207,0.578,1.863,1.659,1.885v0.931h-7.023 V21.44h0.199c1.041,0,1.564-0.517,1.564-1.586L240.4,12.323z"></path><path fill="#41586B" d="M277.698,22.371h-7.04V21.44c1.303,0,1.716-0.575,1.716-1.646v-8.243c0-1.208-0.401-1.765-1.716-1.765V8.855 h7.04v0.931c-1.52,0-1.799,0.714-1.799,1.802v8.187c0,1.072,0.399,1.665,1.799,1.665V22.371z"></path><path fill="#41586B" d="M297.333,22.355h-1.325l-9.324-10.489v5.985c0,2.667,0.482,3.588,2.219,3.588h0.142v0.931h-5.423V21.44 h0.146c1.498,0,1.994-0.932,1.994-2.637v-7.983c-0.698-0.599-1.32-0.934-2.059-1.033V8.855h4.942l7.822,8.715l-0.006-4.06 c0-3.068-0.434-3.729-2.305-3.724V8.855h5.166v0.931c-1.342-0.004-1.989,0.962-1.989,2.972V22.355z"></path><path fill="#41586B" d="M108.39,11.292c-0.502-1.09-0.942-1.446-1.685-1.506v-0.93h6.546v0.93c-1.321,0.06-1.563,0.636-1.062,1.705 l3.121,7.119l2.418-5.848c0.66-1.628,0.485-2.876-1.097-2.976v-0.93h4.46v0.93c-0.883,0.123-1.238,0.734-1.678,1.705l-4.624,10.888 h-1.539L108.39,11.292z"></path><path fill="#41586B" d="M92.02,17.599l-0.558,1.524c-0.438,1.287-0.181,2.183,1.1,2.319v0.931h-4.799v-0.931 c1.362-0.257,1.817-0.815,2.199-1.764c0,0,3.55-9.094,3.667-9.363c0.028-0.07-0.843-0.484-1.423-0.53l0.019-0.927h4.938 l4.304,10.957c0.441,1.129,0.959,1.627,1.782,1.627v0.931h-6.764v-0.931c1.362-0.12,1.681-0.655,1.201-1.867l-0.79-1.977H92.02z  M94.344,11.136l-1.87,5.28h3.966L94.344,11.136z"></path><path fill="#41586B" d="M210.551,17.598l-0.559,1.523c-0.438,1.287-0.174,2.18,1.104,2.319v0.931h-4.801V21.44 c1.354-0.26,1.819-0.815,2.197-1.762c0,0,3.551-9.095,3.665-9.362c0.033-0.071-0.843-0.484-1.422-0.531l0.021-0.926h4.938 l4.301,10.956c0.44,1.13,0.964,1.625,1.781,1.625v0.931h-6.76V21.44c1.358-0.12,1.676-0.655,1.195-1.864l-0.791-1.979H210.551z  M212.877,11.136l-1.871,5.279h3.962L212.877,11.136z"></path></svg>